<?xml version="1.0" encoding="utf-8"?>
<!-- Generator: Adobe Illustrator 15.1.0, SVG Export Plug-In . SVG Version: 6.00 Build 0)  -->
<!DOCTYPE svg PUBLIC "-//W3C//DTD SVG 1.0//EN" "http://www.w3.org/TR/2001/REC-SVG-20010904/DTD/svg10.dtd">
<svg version="1.0" id="Layer_1" xmlns="http://www.w3.org/2000/svg" xmlns:xlink="http://www.w3.org/1999/xlink" x="0px" y="0px"
	 width="375px" height="350px" viewBox="0 0 375 350" enable-background="new 0 0 375 350" xml:space="preserve">
<g>
	<defs>
		<polygon id="SVGID_1_" points="318.866,415.524 308.497,472.512 259.831,491.178 287.364,625.339 287.364,726.889 95.035,726.889 
			95.035,621.492 110.498,489.178 66.498,470.512 41.473,416.295 		"/>
	</defs>
	<clipPath id="SVGID_2_">
		<use xlink:href="#SVGID_1_"  overflow="visible"/>
	</clipPath>
	<path clip-path="url(#SVGID_2_)" fill="#FAF0EB" stroke="#F0D1C5" stroke-width="0.5" d="M186.585,669.958
		c0.514,13.85,0.514,36.416,1.539,51.289c1.279,18.533,2.563,34.875,2.563,53.34c6.156-0.515,12.309-0.515,18.465-0.515
		c8.719-0.512,25.131,1.028,32.822-2.05c5.645-2.564,7.697,1.538,9.234-4.618c2.053-6.153,3.076-13.847,4.615-20.001
		c8.721-30.26,14.268-57.002,16.414-88.213c1.023-14.876-0.514-31.287-3.592-44.623c-3.078-12.82-4.102-25.643-7.693-38.466
		c-4.104-15.385-12.309-30.771-13.848-46.671c-1.537-15.899,1.025-29.234,4.615-44.62c3.078-11.285,4.617-22.566,6.668-33.85
		c2.564,13.334,4.615,28.208,10.771,40.004c10.77-5.642,23.59-10.77,35.387-14.36c-5.129-17.95-12.309-36.415-13.336-54.878
		c-1.023-15.898,2.053-42.569-16.41-49.749c0,0-16.924-8.206-24.617-10.771c-7.18-2.053-14.361-3.59-22.053-6.154
		c-22.055-9.232-14.361-24.619-15.389-44.621h-53.853c-1.026,20.002,6.668,35.389-15.386,44.621
		c-7.693,2.564-15.441,3.477-21.927,7.18c-7.179,4.103-23.721,10.257-23.721,10.257c-18.462,7.181-15.385,33.851-16.411,49.75
		c-1.025,18.464-8.205,36.927-13.334,54.878c11.795,3.59,24.618,8.718,35.388,14.361c6.155-11.797,8.207-26.671,10.771-40.006
		c2.051,11.283,3.589,22.566,6.668,33.85c3.589,15.387,6.152,28.723,4.615,44.621c-1.539,15.898-9.746,31.285-13.847,46.671
		c-3.592,12.822-4.617,25.646-7.694,38.466c-3.077,13.335-4.616,28.723-3.592,44.619c2.013,31.224,7.694,57.957,16.413,88.218
		c1.539,6.153,2.563,13.847,4.615,20c1.539,6.155,3.592,2.05,9.233,4.619c7.694,3.076,24.105,1.538,32.824,2.049
		c6.155,0,12.309,0,18.465,0.514c0-18.464,1.283-34.808,2.563-53.34c1.025-14.873,1.023-37.439,1.537-51.287"/>
	<g clip-path="url(#SVGID_2_)">
		<path fill="#FAF0EB" d="M104.421,436.381c6.615-5.162,7.559,3.439,8.033,7.74c0.945,9.462,6.513,18.203,13.23,21.504
			c23.627,11.611,51.504-3.01,52.924-28.385"/>
		<g>
			<path fill="#F0D1C5" d="M104.451,436.432c2.244-1.549,4.681-2.185,6.124,0.615c0.954,1.851,1.156,4.217,1.38,6.25
				c0.602,5.448,2.148,10.468,5.162,15.081c5.521,8.452,15.99,11.683,25.662,11.814c18.549,0.253,35.691-13.947,36.337-32.951
				c0.022-0.665-0.954-0.64-1.016,0c-0.95,9.828-5.463,18.624-13.382,24.636c-7.796,5.919-17.88,8.233-27.51,6.855
				c-5.049-0.722-10.46-2.445-14.518-5.603c-4.937-3.843-7.951-9.932-9.325-15.913c-1.071-4.665-1.313-16.91-8.987-10.877
				C104.327,436.38,104.396,436.469,104.451,436.432L104.451,436.432z"/>
		</g>
	</g>
	<g clip-path="url(#SVGID_2_)">
		<g>
			<path fill="#F0D1C5" d="M163.892,648.967c3.562,11.315,10.897,22.835,24.246,21.683c0.693-0.06,0.696-1.149,0-1.086
				c-12.884,1.17-20.147-9.853-23.99-20.667C164.091,648.737,163.839,648.802,163.892,648.967L163.892,648.967z"/>
		</g>
	</g>
	<g clip-path="url(#SVGID_2_)">
		<g>
			<path fill="#F0D1C5" d="M208.268,648.896c-3.843,10.814-11.107,21.837-23.991,20.667c-0.697-0.063-0.693,1.026,0,1.086
				c13.349,1.152,20.686-10.367,24.247-21.683C208.575,648.802,208.324,648.737,208.268,648.896L208.268,648.896z"/>
		</g>
	</g>
	<g clip-path="url(#SVGID_2_)">
		<g>
			<path fill="#F0D1C5" d="M123.462,599.247c14.217,9.946,21.497,25.687,31.091,39.563c0.195,0.282,0.654,0.024,0.466-0.271
				c-9-14.149-17.278-29.753-31.481-39.42C123.458,599.064,123.385,599.192,123.462,599.247L123.462,599.247z"/>
		</g>
	</g>
	<g clip-path="url(#SVGID_2_)">
		<g>
			<path fill="#F0D1C5" d="M180.232,547.064c1.175,1.017,2.672,2.036,4.302,1.939c1.04-0.062,1.925-0.675,2.312-1.642
				c0.348-0.871,0.051-1.886-0.693-2.441c-1.054-0.787-2.823-0.581-3.918-0.008c-0.5,0.262-0.147,1.012,0.374,0.886
				c0.973-0.237,2.058-0.769,3.014-0.182c0.527,0.324,0.63,0.962,0.443,1.53c-0.222,0.676-0.916,1.082-1.6,1.147
				c-1.417,0.137-2.794-0.775-3.84-1.621C180.352,546.451,179.959,546.828,180.232,547.064L180.232,547.064z"/>
		</g>
	</g>
	<g clip-path="url(#SVGID_2_)">
		<g>
			<path fill="#F0D1C5" d="M248.095,599.118c-14.204,9.666-22.482,25.271-31.482,39.42c-0.188,0.296,0.27,0.554,0.465,0.271
				c9.596-13.876,16.874-29.616,31.092-39.563C248.247,599.192,248.174,599.064,248.095,599.118L248.095,599.118z"/>
		</g>
	</g>
	
		<ellipse clip-path="url(#SVGID_2_)" fill="#F9ECE6" stroke="#F0D1C5" stroke-width="0.75" cx="140.938" cy="440.703" rx="6.667" ry="5.129"/>
	
		<ellipse clip-path="url(#SVGID_2_)" fill="none" stroke="#F0D1C5" stroke-width="0.75" cx="140.938" cy="440.51" rx="2.587" ry="1.99"/>
	<g clip-path="url(#SVGID_2_)">
		<path fill="#FAF0EB" d="M268.233,436.381c-6.615-5.162-7.559,3.439-8.031,7.74c-0.945,9.462-6.514,18.203-13.232,21.504
			c-23.627,11.611-51.506-3.01-52.924-28.385"/>
		<g>
			<path fill="#F0D1C5" d="M268.274,436.339c-7.29-5.731-7.987,5.265-8.825,10.083c-1.035,5.955-4.055,11.646-8.436,15.801
				c-3.938,3.735-9.699,5.477-14.932,6.406c-9.657,1.715-19.701-0.767-27.664-6.399c-8.244-5.831-12.907-15.073-13.864-24.99
				c-0.062-0.64-1.038-0.665-1.016,0c0.652,19.235,17.785,32.897,36.337,32.951c9.521,0.028,19.473-3.345,25.235-11.196
				c3.255-4.434,4.993-9.852,5.546-15.276c0.205-2.005,0.483-4.007,1.118-5.926c1.113-3.366,3.867-3.129,6.43-1.361
				C268.258,436.469,268.327,436.38,268.274,436.339L268.274,436.339z"/>
		</g>
	</g>
	
		<ellipse clip-path="url(#SVGID_2_)" fill="#F9ECE6" stroke="#F0D1C5" stroke-width="0.75" cx="231.718" cy="440.703" rx="6.666" ry="5.129"/>
	
		<ellipse clip-path="url(#SVGID_2_)" fill="none" stroke="#F0D1C5" stroke-width="0.75" cx="231.717" cy="440.51" rx="2.587" ry="1.99"/>
</g>
<g>
	<defs>
		<rect id="SVGID_3_" x="82.835" y="16.105" width="208.046" height="318.785"/>
	</defs>
	<clipPath id="SVGID_4_">
		<use xlink:href="#SVGID_3_"  overflow="visible"/>
	</clipPath>
	<path clip-path="url(#SVGID_4_)" fill="#E3E3E3" stroke="#E3E3E3" stroke-width="0.75" d="M275.005,21.056
		c-0.953,6.694-12.907,77.936-14.82,84.629c-1.914,6.692-3.826,21.993-1.436,38.729c2.392,16.734,4.304,29.166,1.913,40.162
		c2.868,5.26,4.303,30.122,5.259,39.205c0.959,9.087,6.192,70.034-1.02,113.44l-75.267-0.601c-1.915-8.966-3.11-43.136-2.87-49.353
		l-3.109-0.783c0,2.031-0.536,15.686-0.836,20.733c-0.598,10.04-1.674,24.142-2.391,28.807l-75.321,0.437
		c-7.968-43.669-4.462-104.712-3.505-113.795c0.956-9.083,2.231-34.584,5.1-39.844c-2.39-10.996-1.116-27.253,1.275-43.988
		c2.391-16.735,2.868-32.833-0.318-44.306c-11.86-42.696-15.301-67.577-16.257-74.27l0.157-0.195
		c-1.664-1.27-4.342-3.619-5.303-6.18h195.445C280.264,17.709,275.005,21.056,275.005,21.056z"/>
</g>
<path fill="none" stroke="#808285" stroke-width="0.5" stroke-linecap="round" stroke-linejoin="round" d="M208.636,237.411
	c-1.906,1.149-6.389,7.339-5.345,14.129c0.384,2.482-0.191,4.773,0.384,5.919c0.571,1.146,0.953,7.638,0.38,9.163
	c-0.571,1.53,0.382,5.92-0.38,7.256c-0.765,1.338-1.148,4.963-2.103,5.346c-0.952,0.382-1.907,2.291-1.907,3.056
	c0,0.764-1.719,2.1-2.675,2.1c-0.953,0-3.246,2.102-4.2,1.72c-0.955-0.383-2.292,0-2.864,0.57c-0.573,0.574-4.166,0.286-4.929-0.094
	c-0.766-0.19-3.21-0.287-3.975,0.094c-0.763,0.382-3.817,0.574-4.39,0c-0.574-0.57-1.911-0.954-2.864-0.57
	c-0.954,0.382-3.246-1.72-4.2-1.72s-2.674-1.335-2.674-2.1c0-0.765-0.954-2.673-1.909-3.056c-0.954-0.383-1.335-4.007-2.099-5.346
	c-0.764-1.335,0.191-5.726-0.382-7.256c-0.573-1.525-0.191-8.017,0.382-9.163c0.573-1.146,0-3.438,0.382-5.919
	c1.045-6.79-3.437-12.98-5.346-14.129"/>
<path fill="#FDDEB2" stroke="#FDDEB2" d="M144.926,101.843c4.913,2.873,10.483,6.052,11.423,15.816
	c1.197,9.119,0.668,17.887-0.963,27.11c-0.78,4.412-1.587,8.973-2.055,13.538c-2.54,24.812,4.466,46.771,18.263,61.831l1.764-1.694
	c-13.309-14.526-20.086-35.793-17.621-59.879c0.457-4.472,1.256-8.988,2.029-13.354c1.594-9.005,3.286-19.438,3.286-27.552
	c0-7.609-1.478-24.205-11.289-27.368L144.926,101.843z"/>
<path fill="#FDDEB2" stroke="#FDDEB2" d="M221.205,94.007c-4.912,3.064-10.481,6.452-11.423,16.864
	c-1.195,9.723-0.668,19.071,0.962,28.906c0.781,4.704,1.589,9.567,2.054,14.434c2.542,26.457-4.464,49.869-18.261,65.927
	l-1.765-1.806c13.309-15.489,20.088-38.164,17.621-63.846c-0.458-4.769-1.258-9.583-2.029-14.239
	c-1.594-9.602-3.287-20.725-3.287-29.376c0-8.112,1.479-25.808,11.289-29.181L221.205,94.007z"/>
<g>
	<path fill="#B67798" stroke="#B67798" d="M151.549,95.941c2.771-0.108,8.084,0.188,8.776-7.912
		c0.692-8.106-0.921-17.125-8.802-18.585c-7.879-1.46-11.653,1.803-15.375,6.908c-3.643,4.996-4.518,6.993-5.674,9.812
		c-0.901,2.202-3.603,13.929-3.052,18.794c0.557,4.906,0.77,11.261,3.626,15.248c2.5,3.493,3.791,6.671,11.623,6.869
		c7.831,0.2,12.108-9.97,10.176-17.305c-1.185-4.498-2.979-5.185-3.987-5.145c-0.152-1.761,0.639-3.054,1.193-3.917
		C150.608,99.849,151.779,97.531,151.549,95.941z"/>
	<path fill="#B67798" stroke="#B67798" d="M138.977,79.437c1.306-1.855,2.734-3.431,4.548-4.377c1.678-0.881,3.685-1.24,6.19-0.741
		c3.566,0.71,4.868,3.667,4.84,6.86c-0.017,1.953-0.605,3.819-1.178,5.678c-0.552,1.792-1.316,3.017-2.148,3.975
		c-1.171,1.348-2.64,1.709-3.607,2.158c0.027,1.111-0.644,2.583-1.057,3.313c-0.271,0.479-0.622,1.064-0.829,1.769
		c-0.085,0.286-0.146,0.588-0.168,0.906c0.253,0.403,1.034,1.108,1.417,3.777c0.195,1.36,0.126,2.863,0.007,4.421
		c-0.297,3.891-1.092,7.862-4.29,8.527c-0.637,0.132-1.295,0.112-1.781,0.112c-2.457-0.463-3.818-2.458-4.862-3.917
		c-2.121-3.564-2.542-8.616-2.806-12.927c-0.22-3.587,1.268-10.603,2.075-12.768C136.099,84.133,136.821,82.514,138.977,79.437z"/>
	<path fill="#B67798" stroke="#B67798" d="M141.066,103.59c-1.386-3.142-2.079-6.885-1.986-10.605
		c0.092-3.719,0.97-7.416,2.726-10.465c0.647-1.017,1.525-1.987,2.565-2.634s2.241-0.97,3.535-0.693
		c2.218,0.555,2.218,2.587,1.293,4.251c-1.293,1.849-3.696,2.218-4.62,4.067c-0.924,1.848-0.924,3.696-2.033,5.359
		c-1.109,1.848-1.849,3.143-1.664,5.36c0.369,2.034,2.402,4.065,1.847,6.099c0,0.185-0.184,0.37-0.184,0.554L141.066,103.59z"/>
</g>
<path fill="none" d="M151.28,95.672c2.772-0.108,8.083,0.188,8.776-7.913c0.693-8.104-0.921-17.125-8.802-18.584
	c-7.88-1.459-11.653,1.803-15.376,6.907c-3.643,4.997-4.519,6.993-5.673,9.812c-0.901,2.203-3.603,13.93-3.052,18.795
	c0.556,4.905,0.769,11.261,3.626,15.248c2.5,3.493,3.791,6.67,11.623,6.869c7.831,0.2,12.109-9.969,10.176-17.304
	c-1.185-4.497-2.978-5.185-3.986-5.145c-0.153-1.761,0.638-3.054,1.193-3.917C150.34,99.58,151.51,97.262,151.28,95.672z"/>
<g>
	<path fill="#B67798" stroke="#B67798" d="M214.136,83.234c-4.577-0.64-7.726-9.279-5.681-17.177
		c2.045-7.895,10.662-11.007,16.723-9.803c6.063,1.207,9.125,4.851,9.587,6.2c0.864,2.538,4.646,6.556,5.613,8.875
		c0.665,1.605,3.882,7.333,3.29,17.382c-0.599,10.051-2.211,11.072-2.258,13.013c-0.046,1.941-0.305,8.278-5.781,12.739
		c-3.988,3.249-7.001,4.787-12.265,3.424c-5.266-1.363-9.994-7.471-8.813-15.221c0.628-4.135,2.079-5.777,2.789-5.936
		c-1.017-1.792-1.976-5.875-1.764-7.283C215.782,88.042,215.336,84.675,214.136,83.234z"/>
</g>
<path fill="none" d="M213.865,82.965c-4.576-0.64-7.724-9.279-5.68-17.176c2.045-7.896,10.662-11.009,16.724-9.803
	c6.063,1.205,9.123,4.85,9.587,6.199c0.863,2.537,4.646,6.556,5.611,8.876c0.668,1.604,3.883,7.332,3.291,17.382
	c-0.597,10.05-2.211,11.072-2.258,13.013c-0.046,1.94-0.306,8.277-5.781,12.739c-3.988,3.248-7,4.786-12.264,3.423
	c-5.266-1.362-9.995-7.471-8.815-15.22c0.628-4.135,2.081-5.777,2.791-5.935c-1.019-1.791-1.979-5.875-1.766-7.283
	C215.516,87.773,215.067,84.406,213.865,82.965z"/>
<path fill="none" d="M151.42,95.507c0.023-0.509-0.435-1.688-1.119-2.453c0.32,0.357,0.794,2.546,0.799,2.443"/>
<path fill="none" d="M148.805,104.392c0.017,0.42,0.033,1.284-0.334,2.643c-0.208,0.766-0.501,1.929-0.478,2.518
	c-0.023-0.588,0.118-1.687,0.325-2.453c0.368-1.361,0.076-2.359,0.06-2.778"/>
<path fill="none" d="M213.59,82.799c-0.256-0.446-0.457-2.991,0.72-4.286c-1.177,1.294-0.478,3.948-0.223,4.396"/>
<path fill="none" d="M216.961,96.628c0.165,0.467,1.313,1.356,1.698,1.828c-0.386-0.472-1.092-1.416-1.256-1.884"/>
<path fill="#FFE293" stroke="#FFE293" d="M156.088,71.771c1.004,0.996,4.031,0.292,3.361-2.275c-0.668-2.566-2.175-5.989-2.133-7.38
	c0.043-1.389,0.004-5.702-5.508-5.259c-5.511,0.442-5.853,3.86-6.649,5.464c-0.796,1.604-4.813,5.318-3.556,7.528
	C145.063,68.803,150.324,67.147,156.088,71.771z"/>
<path fill="#FFE293" stroke="#FFE293" d="M207.223,61.779c-0.154,1.989-0.484,6.13,2.257,4.195c2.741-1.937,2.42-5.485,6.129-6.938
	c3.711-1.45,6.937-2.419,9.033-2.257c2.099,0.161,3.71-2.097,0.97-3.065c-2.744-0.967-5.486-0.806-6.777-2.096
	c-1.29-1.291-4.997-0.163-7.903,1.774C208.027,55.327,207.382,59.683,207.223,61.779z"/>
<ellipse transform="matrix(-0.9941 0.1084 -0.1084 -0.9941 378.588 519.7748)" fill="#B9CCE9" stroke="#B9CCE9" cx="175.164" cy="270.179" rx="8.467" ry="11.693"/>
<path fill="#B9CCE9" stroke="#B9CCE9" d="M200.518,271.903c0.701-6.418-2.502-12.034-7.147-12.542
	c-4.651-0.507-8.99,4.288-9.69,10.707c-0.699,6.419,2.501,12.035,7.152,12.542C195.481,283.116,199.818,278.323,200.518,271.903z"/>
<path fill="#E5AB97" stroke="#E5AB97" d="M174.865,259.274c-1.43,0.143-4.203,1.789-5.547,6.269
	c-1.289,4.294-1.325,8.049,0.536,11.485c1.862,3.436,3.866,4.296,4.582,4.726c-0.763,0.762-2.019,0.57-3.007,0.287
	c-3.007-0.86-7.27-7.917-5.66-17.708c2.482-15.084-1.719-23.101-8.209-37.229c-8.51-18.52,10.838-23.722,13.797-21.24
	c-1.432,0.286-3.867,2.077-5.012,2.937c-0.429-0.286-2.284,0.375-2.796,0.717c-11.527,7.66-0.931,20.689,2.649,30.713
	c3.581,10.023,2.797,14.842,3.083,16.179c0.287,1.337-0.573,4.679-0.859,5.442c1.24-5.06,5.036-7.035,6.443-7.3
	c0.501-0.096,3.726-0.699,4.937,0.61c1.208,1.311,0.907,2.017,1.512,2.419c0.605,0.404,1.311,2.521,0.706,3.024
	c-0.605,0.504-2.218,0.404-2.419-0.201c-0.203-0.605-1.21-1.108-2.017-1.209C176.777,259.091,174.865,259.274,174.865,259.274z"/>
<path fill="#E5AB97" stroke="#E5AB97" d="M191.471,259.98c1.431,0.143,4.205,1.789,5.548,6.267
	c1.289,4.295,1.327,8.051-0.536,11.487c-1.861,3.437-3.865,4.297-4.582,4.726c0.765,0.762,2.02,0.568,3.008,0.287
	c3.008-0.862,7.27-7.919,5.659-17.71c-2.48-15.083,1.718-23.101,8.209-37.229c8.51-18.52-10.839-23.722-13.798-21.24
	c1.432,0.285,3.867,2.076,5.012,2.936c0.431-0.286,2.283,0.376,2.798,0.716c11.524,7.661,0.932,20.69-2.65,30.714
	c-3.581,10.023-2.797,14.843-3.082,16.178c-0.286,1.338,0.571,4.68,0.86,5.443c-1.242-5.059-5.037-7.036-6.445-7.301
	c-0.501-0.095-3.727-0.699-4.938,0.611c-1.209,1.311-0.907,2.016-1.513,2.419c-0.604,0.403-1.311,2.521-0.705,3.024
	c0.605,0.504,2.218,0.403,2.42-0.202s1.21-1.109,2.017-1.21C189.56,259.797,191.471,259.98,191.471,259.98z"/>
<g>
	<path fill="#E3E3E3" stroke="#808285" stroke-width="0.5" stroke-linecap="round" stroke-linejoin="round" d="M174.58,246.529
		c0.716,0.429,1.974,2.514,1.444,4.744c-0.466,1.956-0.392,17.181-0.155,18.31c0.261,1.242,0.122,2.368-0.164,2.94
		c-0.287,0.574-0.042,1.767,0.532,2.338c0.572,0.572,0.245,0.873,0.531,2.018c0.285,1.145,0.677,3.585,4.111,5.59
		c2.551,1.487,4.154,0.858,5.586-0.716c0.829-0.913,2.754-2.991,3.054-5.086c0.213-1.489,1.002-2.133,0.814-3.076
		c-0.144-0.715-0.57-1.91-0.282-2.768c0.234-0.704,0.685-10.817-0.319-17.851c-0.318-2.232,0.637-5.633,1.316-6.445"/>
	<g>
		<g>
			<path fill="#808285" d="M173.351,248.493c0.668,0.049,1.265,0.31,1.71,0.817c0.414,0.471,0.42,1.042,0.534,1.619
				c0.071,0.363,0.702,0.385,0.753,0c0.221-1.643-1.581-2.643-2.997-2.608C173.239,248.324,173.241,248.485,173.351,248.493
				L173.351,248.493z"/>
		</g>
	</g>
	<g>
		<g>
			<path fill="#808285" d="M192.46,248.128c-1.25,0.648-2.817,1.318-2.999,2.899c-0.055,0.478,0.722,0.568,0.829,0.112
				c0.145-0.615,0.341-1.134,0.78-1.604c0.444-0.474,0.998-0.855,1.498-1.267C192.65,248.202,192.546,248.083,192.46,248.128
				L192.46,248.128z"/>
		</g>
	</g>
	<g>
		<g>
			<path fill="#808285" d="M180.331,270.993c-1.489-0.282-4.098-0.127-4.929,1.39c-0.23,0.421,0.322,0.866,0.669,0.516
				c1.137-1.149,2.642-1.602,4.234-1.714C180.409,271.177,180.445,271.015,180.331,270.993L180.331,270.993z"/>
		</g>
	</g>
	<g>
		<g>
			<path fill="#808285" d="M184.981,271.33c1.51-0.321,3.666,0.231,4.598,1.504c0.271,0.371,0.85,0.254,0.873-0.237
				c0.099-2.103-4.301-1.934-5.55-1.554C184.718,271.1,184.794,271.37,184.981,271.33L184.981,271.33z"/>
		</g>
	</g>
</g>
<path fill="#E5AB97" stroke="#E5AB97" d="M184.023,282.758c0.716-2.294,0.716-5.873,0.43-7.162c-0.285-1.289-0.572-2.864-0.572-4.01
	c0-1.144,0.287-24.771,0.287-27.349h-2.148c0,5.01,0.144,25.631,0.144,27.349c0,1.719-0.286,3.008-0.574,3.865
	c-0.286,0.859-0.286,4.297,1.003,7.306"/>
<path fill="#E5AB97" stroke="#E5AB97" d="M184.797,231.496c2.721-0.145,6.017,0,6.159,4.008c0.118,3.293-2.148,6.444-5.158,8.162
	c-0.916,0.524-1.746,0.775-2.536,0.812h-0.569c-0.792-0.037-1.619-0.288-2.537-0.812c-3.008-1.718-5.273-4.869-5.155-8.162
	c0.142-4.008,3.436-4.153,6.156-4.008H184.797z"/>
<path fill="#E5AB97" stroke="#E5AB97" d="M183.764,232.238c22.987,0,33.245-28.739,0-28.739
	C150.528,203.5,160.154,232.238,183.764,232.238z"/>
<text transform="matrix(1 0 0 1 14.6895 221.1377)" fill="#333333" font-family="Liberation Sans, Helvetica, Arial, sans-serif" font-size="14.1">Bladder</text>
<text transform="matrix(1 0 0 1 314.9453 263.7441)" fill="#333333" font-family="Liberation Sans, Helvetica, Arial, sans-serif" font-size="14.1">Urethra</text>
<text transform="matrix(1 0 0 1 14 163.9512)" fill="#333333" font-family="Liberation Sans, Helvetica, Arial, sans-serif" font-size="14.1">Ureter</text>
<text transform="matrix(1 0 0 1 308.9219 241.7866)" fill="#333333" font-family="Liberation Sans, Helvetica, Arial, sans-serif" font-size="14.1">Prostate</text>
<text transform="matrix(1 0 0 1 14 101.3457)" fill="#333333" font-family="Liberation Sans, Helvetica, Arial, sans-serif" font-size="14.1">Kidney</text>
<line fill="none" stroke="#333333" x1="61" y1="98" x2="139" y2="98"/>
<line fill="none" stroke="#1D1D1B" x1="60" y1="161" x2="153" y2="161"/>
<line fill="none" stroke="#1D1D1B" x1="175" y1="218" x2="69" y2="218"/>
<line fill="none" stroke="#333333" x1="184" y1="237" x2="301" y2="237"/>
<line fill="none" stroke="#333333" x1="183" y1="260" x2="312" y2="260"/>
</svg>
